<svg id="outline" height="512" viewBox="0 0 512 512" width="512" xmlns="http://www.w3.org/2000/svg"><path d="m424 344a7.99977 7.99977 0 0 0 -8-8h-56v-48a7.99977 7.99977 0 0 0 -8-8h-56v-48a7.99977 7.99977 0 0 0 -8-8h-56v-48a7.99977 7.99977 0 0 0 -8-8h-56v-48a7.99977 7.99977 0 0 0 -8-8h-56v-64a7.99977 7.99977 0 0 0 -8-8h-64a7.99977 7.99977 0 0 0 -8 8v400h-8v16h480v-16h-72zm-16 8v96h-48v-96zm-64-56v152h-48v-152zm-64-56v208h-48v-208zm-64-56v264h-48v-264zm-64-56v320h-48v-320zm-112-72h48v392h-48z"/><path d="m176 480h32v16h-32z"/><path d="m112 480h32v16h-32z"/><path d="m48 480h32v16h-32z"/><path d="m240 480h32v16h-32z"/><path d="m304 480h32v16h-32z"/><path d="m368 480h32v16h-32z"/><path d="m488 280h-46.37354l-89.62646-76.82269v-43.17731a7.99977 7.99977 0 0 0 -8-8h-46.70325l-73.29675-61.08063v-42.91937a7.99977 7.99977 0 0 0 -8-8h-47.1936l-27.80884-22.24707-9.99512 12.49414 28.99756 23.19806v42.55487a7.99977 7.99977 0 0 0 8 8h46.70325l73.29675 61.08063v42.91937a7.99977 7.99977 0 0 0 8 8h46.37354l89.62646 76.82275v43.17725a7.99977 7.99977 0 0 0 8 8h16v56h16v-56h16a7.99977 7.99977 0 0 0 8-8v-48a7.99977 7.99977 0 0 0 -8-8zm-312-224h32v32h-32zm128 112h32v32h-32zm176 160h-32v-32h32z"/><path d="m456 416h16v16h-16z"/></svg>