<svg id="Capa_1" enable-background="new 0 0 512.008 512.008" height="512" viewBox="0 0 512.008 512.008" width="512" xmlns="http://www.w3.org/2000/svg"><path d="m423.546 512.004-95.602-512h-56.94v91c0 8.284-6.716 15-15 15s-15-6.716-15-15v-91h-56.94l-95.601 512h152.542v-91c0-8.284 6.716-15 15-15s15 6.716 15 15v91zm-182.542-361c0-8.284 6.716-15 15-15s15 6.716 15 15v75c0 8.284-6.716 15-15 15s-15-6.716-15-15zm15 225c-8.284 0-15-6.716-15-15v-75c0-8.284 6.716-15 15-15s15 6.716 15 15v75c0 8.284-6.716 15-15 15z"/><path d="m153.545.004h-48.541c-7.223 0-13.419 5.147-14.745 12.247l-90 482c-1.721 9.217 5.358 17.753 14.745 17.753h42.94z"/><path d="m511.749 494.251-90-482c-1.326-7.1-7.522-12.247-14.745-12.247h-48.542l95.602 512h42.94c9.376 0 16.468-8.526 14.745-17.753z"/></svg>